<svg width="392" height="541" viewBox="0 0 392 541" fill="none" xmlns="http://www.w3.org/2000/svg">
<rect opacity="0.7" x="391.5" y="0.500008" width="540" height="391" rx="8" transform="rotate(90 391.5 0.500008)" fill="#0E9655"/>
<path d="M373.352 270.5L373.352 21.8661L20.844 21.866L20.8439 270.5" stroke="white" stroke-width="2"/>
<path d="M215.953 21.0259L215.953 7.9759L173.324 7.9759L173.324 21.0259" stroke="white" stroke-width="2"/>
<path d="M148.731 21.8668L148.731 59.6133L240.547 59.6133L240.547 21.8668" stroke="white" stroke-width="2"/>
<path d="M101.183 22.5072L101.183 112.77L288.094 112.771L288.094 22.5072" stroke="white" stroke-width="2"/>
<path d="M360.889 22.8305C360.889 24.3392 361.186 25.833 361.762 27.2268C362.339 28.6206 363.184 29.8871 364.25 30.9538C365.316 32.0206 366.581 32.8668 367.974 33.4441C369.366 34.0215 370.859 34.3186 372.366 34.3186" stroke="white" stroke-width="2"/>
<path d="M22.4836 34.9949C23.9907 34.9949 25.4832 34.6977 26.8756 34.1204C28.2681 33.5431 29.5333 32.6969 30.599 31.6301C31.6648 30.5633 32.5102 29.2969 33.0869 27.9031C33.6637 26.5093 33.9606 25.0155 33.9606 23.5068" stroke="white" stroke-width="2"/>
<path d="M148.731 112.77C154.759 121.616 161.917 128.632 169.793 133.419C177.67 138.206 186.113 140.67 194.639 140.67C203.165 140.67 211.607 138.206 219.484 133.419C227.361 128.632 234.518 121.616 240.547 112.771" stroke="white" stroke-width="2"/>
<mask id="path-9-outside-1_126_3710" maskUnits="userSpaceOnUse" x="143.105" y="217.805" width="105" height="55" fill="black">
<rect fill="white" x="143.105" y="217.805" width="105" height="55"/>
<path d="M247.101 271.169C247.101 271.22 247.099 271.271 247.098 271.322L246.098 271.322C246.103 271.049 246.105 270.775 246.105 270.501C246.105 242.501 223.429 219.805 195.459 219.805C167.488 219.805 144.812 242.501 144.812 270.501C144.812 270.775 144.816 271.049 144.82 271.322L143.82 271.322C143.816 271.049 143.812 270.775 143.812 270.501L143.816 269.833C144.173 241.59 167.158 218.805 195.459 218.805C223.982 218.805 247.105 241.95 247.105 270.501L247.101 271.169Z"/>
</mask>
<path d="M247.101 271.169C247.101 271.22 247.099 271.271 247.098 271.322L246.098 271.322C246.103 271.049 246.105 270.775 246.105 270.501C246.105 242.501 223.429 219.805 195.459 219.805C167.488 219.805 144.812 242.501 144.812 270.501C144.812 270.775 144.816 271.049 144.82 271.322L143.82 271.322C143.816 271.049 143.812 270.775 143.812 270.501L143.816 269.833C144.173 241.59 167.158 218.805 195.459 218.805C223.982 218.805 247.105 241.95 247.105 270.501L247.101 271.169Z" fill="white"/>
<path d="M247.101 271.169L247.601 271.175L247.601 271.172L247.101 271.169ZM247.098 271.322L247.098 271.822L247.591 271.822L247.598 271.33L247.098 271.322ZM246.098 271.322L245.598 271.314L245.59 271.822L246.098 271.822L246.098 271.322ZM246.105 270.501L246.605 270.501L246.605 270.501L246.105 270.501ZM195.459 219.805L195.459 219.305L195.459 219.305L195.459 219.805ZM144.812 270.501L144.312 270.501L144.312 270.501L144.812 270.501ZM144.82 271.322L144.82 271.822L145.328 271.822L145.32 271.314L144.82 271.322ZM143.82 271.322L143.32 271.33L143.328 271.822L143.82 271.822L143.82 271.322ZM143.812 270.501L143.312 270.498L143.312 270.501L143.812 270.501ZM143.816 269.833L143.316 269.827L143.316 269.83L143.816 269.833ZM195.459 218.805L195.459 218.305L195.459 218.305L195.459 218.805ZM247.105 270.501L247.605 270.504L247.605 270.501L247.105 270.501ZM247.101 271.169L246.601 271.163C246.601 271.221 246.599 271.246 246.598 271.315L247.098 271.322L247.598 271.33C247.599 271.296 247.601 271.219 247.601 271.175L247.101 271.169ZM247.098 271.322L247.098 270.822L246.098 270.822L246.098 271.322L246.098 271.822L247.098 271.822L247.098 271.322ZM246.098 271.322L246.598 271.33C246.603 271.055 246.605 270.778 246.605 270.501L246.105 270.501L245.605 270.501C245.605 270.772 245.603 271.043 245.598 271.314L246.098 271.322ZM246.105 270.501L246.605 270.501C246.605 242.226 223.706 219.305 195.459 219.305L195.459 219.805L195.459 220.305C223.152 220.305 245.605 242.777 245.605 270.501L246.105 270.501ZM195.459 219.805L195.459 219.305C167.212 219.305 144.312 242.226 144.312 270.501L144.812 270.501L145.312 270.501C145.312 242.777 167.765 220.305 195.459 220.305L195.459 219.805ZM144.812 270.501L144.312 270.501C144.312 270.779 144.316 271.056 144.32 271.33L144.82 271.322L145.32 271.314C145.316 271.042 145.312 270.771 145.312 270.501L144.812 270.501ZM144.82 271.322L144.82 270.822L143.82 270.822L143.82 271.322L143.82 271.822L144.82 271.822L144.82 271.322ZM143.82 271.322L144.32 271.315C144.316 271.042 144.312 270.771 144.312 270.501L143.812 270.501L143.312 270.501C143.312 270.779 143.316 271.056 143.32 271.33L143.82 271.322ZM143.812 270.501L144.312 270.504L144.316 269.836L143.816 269.833L143.316 269.83L143.312 270.498L143.812 270.501ZM143.816 269.833L144.316 269.839C144.67 241.869 167.432 219.305 195.459 219.305L195.459 218.805L195.459 218.305C166.883 218.305 143.677 241.311 143.316 269.827L143.816 269.833ZM195.459 218.805L195.459 219.305C223.706 219.305 246.605 242.226 246.605 270.501L247.105 270.501L247.605 270.501C247.605 241.674 224.259 218.305 195.459 218.305L195.459 218.805ZM247.105 270.501L246.605 270.498L246.601 271.166L247.101 271.169L247.601 271.172L247.605 270.504L247.105 270.501Z" fill="white" mask="url(#path-9-outside-1_126_3710)"/>
<ellipse cx="193.819" cy="270.501" rx="2.46173" ry="2.45936" transform="rotate(90 193.819 270.501)" fill="white"/>
<ellipse cx="193.819" cy="86.6922" rx="2.46173" ry="2.45936" transform="rotate(90 193.819 86.6922)" fill="white"/>
<path d="M373.352 270.5L373.352 519.134L20.844 519.134L20.844 270.499" stroke="white" stroke-width="2"/>
<path d="M215.953 519.134L215.953 532.184L173.324 532.184L173.324 519.134" stroke="white" stroke-width="2"/>
<path d="M148.731 519.134L148.731 481.388L240.547 481.388L240.547 519.134" stroke="white" stroke-width="2"/>
<path d="M101.183 518.493L101.183 428.23L288.094 428.23L288.094 518.493" stroke="white" stroke-width="2"/>
<path d="M360.236 518.494C360.236 516.986 360.533 515.492 361.109 514.098C361.686 512.704 362.532 511.438 363.597 510.371C364.663 509.304 365.928 508.458 367.321 507.881C368.713 507.303 370.206 507.006 371.713 507.006" stroke="white" stroke-width="2"/>
<path d="M21.4835 507.006C22.9907 507.006 24.4831 507.303 25.8756 507.881C27.268 508.458 28.5333 509.304 29.599 510.371C30.6647 511.438 31.5101 512.704 32.0869 514.098C32.6637 515.492 32.9605 516.986 32.9605 518.494" stroke="white" stroke-width="2"/>
<path d="M148.731 428.23C154.759 419.384 161.917 412.368 169.793 407.581C177.67 402.794 186.113 400.33 194.639 400.33C203.165 400.33 211.607 402.794 219.484 407.581C227.361 412.368 234.518 419.384 240.547 428.23" stroke="white" stroke-width="2"/>
<mask id="path-20-outside-2_126_3710" maskUnits="userSpaceOnUse" x="143.105" y="268.196" width="105" height="55" fill="black">
<rect fill="white" x="143.105" y="268.196" width="105" height="55"/>
<path d="M247.101 269.832C247.101 269.781 247.099 269.73 247.098 269.679L246.098 269.679C246.103 269.952 246.105 270.226 246.105 270.5C246.105 298.5 223.429 321.196 195.459 321.196C167.488 321.196 144.812 298.5 144.812 270.5C144.812 270.226 144.816 269.952 144.82 269.679L143.82 269.679C143.816 269.952 143.812 270.226 143.812 270.5L143.816 271.168C144.173 299.411 167.158 322.196 195.459 322.196C223.982 322.196 247.105 299.051 247.105 270.5L247.101 269.832Z"/>
</mask>
<path d="M247.101 269.832C247.101 269.781 247.099 269.73 247.098 269.679L246.098 269.679C246.103 269.952 246.105 270.226 246.105 270.5C246.105 298.5 223.429 321.196 195.459 321.196C167.488 321.196 144.812 298.5 144.812 270.5C144.812 270.226 144.816 269.952 144.82 269.679L143.82 269.679C143.816 269.952 143.812 270.226 143.812 270.5L143.816 271.168C144.173 299.411 167.158 322.196 195.459 322.196C223.982 322.196 247.105 299.051 247.105 270.5L247.101 269.832Z" fill="white"/>
<path d="M247.101 269.832L247.601 269.826L247.601 269.829L247.101 269.832ZM247.098 269.679L247.098 269.179L247.591 269.179L247.598 269.671L247.098 269.679ZM246.098 269.679L245.598 269.687L245.59 269.179L246.098 269.179L246.098 269.679ZM246.105 270.5L246.605 270.5L246.605 270.5L246.105 270.5ZM195.459 321.196L195.459 321.696H195.459L195.459 321.196ZM144.812 270.5L144.312 270.5L144.312 270.5L144.812 270.5ZM144.82 269.679L144.82 269.179L145.328 269.179L145.32 269.687L144.82 269.679ZM143.82 269.679L143.32 269.671L143.328 269.179L143.82 269.179L143.82 269.679ZM143.812 270.5L143.312 270.503L143.312 270.5L143.812 270.5ZM143.816 271.168L143.316 271.174L143.316 271.171L143.816 271.168ZM195.459 322.196L195.459 322.696H195.459L195.459 322.196ZM247.105 270.5L247.605 270.497L247.605 270.5L247.105 270.5ZM247.101 269.832L246.601 269.839C246.601 269.78 246.599 269.755 246.598 269.687L247.098 269.679L247.598 269.671C247.599 269.705 247.601 269.782 247.601 269.826L247.101 269.832ZM247.098 269.679L247.098 270.179L246.098 270.179L246.098 269.679L246.098 269.179L247.098 269.179L247.098 269.679ZM246.098 269.679L246.598 269.671C246.603 269.946 246.605 270.223 246.605 270.5L246.105 270.5L245.605 270.5C245.605 270.229 245.603 269.958 245.598 269.687L246.098 269.679ZM246.105 270.5L246.605 270.5C246.605 298.776 223.706 321.696 195.459 321.696L195.459 321.196L195.459 320.696C223.152 320.696 245.605 298.224 245.605 270.5L246.105 270.5ZM195.459 321.196L195.459 321.696C167.212 321.696 144.312 298.776 144.312 270.5L144.812 270.5L145.312 270.5C145.312 298.224 167.765 320.696 195.459 320.696L195.459 321.196ZM144.812 270.5L144.312 270.5C144.312 270.222 144.316 269.945 144.32 269.671L144.82 269.679L145.32 269.687C145.316 269.959 145.312 270.23 145.312 270.5L144.812 270.5ZM144.82 269.679L144.82 270.179L143.82 270.179L143.82 269.679L143.82 269.179L144.82 269.179L144.82 269.679ZM143.82 269.679L144.32 269.687C144.316 269.959 144.312 270.23 144.312 270.5L143.812 270.5L143.312 270.5C143.312 270.222 143.316 269.945 143.32 269.671L143.82 269.679ZM143.812 270.5L144.312 270.497L144.316 271.165L143.816 271.168L143.316 271.171L143.312 270.503L143.812 270.5ZM143.816 271.168L144.316 271.162C144.67 299.132 167.432 321.696 195.459 321.696L195.459 322.196L195.459 322.696C166.883 322.696 143.677 299.691 143.316 271.174L143.816 271.168ZM195.459 322.196L195.459 321.696C223.706 321.696 246.605 298.776 246.605 270.5L247.105 270.5L247.605 270.5C247.605 299.327 224.259 322.696 195.459 322.696L195.459 322.196ZM247.105 270.5L246.605 270.503L246.601 269.835L247.101 269.832L247.601 269.829L247.605 270.497L247.105 270.5Z" fill="white" mask="url(#path-20-outside-2_126_3710)"/>
<ellipse cx="2.46173" cy="2.45936" rx="2.46173" ry="2.45936" transform="matrix(4.37114e-08 -1 -1 -4.37114e-08 196.278 272.962)" fill="white"/>
<ellipse cx="2.46173" cy="2.45936" rx="2.46173" ry="2.45936" transform="matrix(4.37114e-08 -1 -1 -4.37114e-08 196.278 456.77)" fill="white"/>
<line x1="371.713" y1="270.18" x2="20.8439" y2="270.18" stroke="white"/>
</svg>
